<?xml version="1.0" encoding="UTF-8"?>
<svg width="752pt" height="752pt" version="1.1" viewBox="0 0 752 752" xmlns="http://www.w3.org/2000/svg">
 <path d="m266.5 408.39c-0.37891 0-0.75781-0.007812-1.1406-0.023437-11.422-0.53906-21.18-9.2305-23.195-20.664l13.988-2.4688c0.875 4.9492 5.0234 8.7109 9.8711 8.9375 5.2422 0.23047 9.9453-3.6875 10.883-8.957l13.984 2.5c-2.1367 11.973-12.512 20.676-24.391 20.676zm267.13-46.961c8.543 16.105 13.406 34.453 13.406 53.918 0 40.734-21.52 78.422-56.402 99.227l-6.8906 52.465h-65.98l-6.5312-36.207-59.797 0.003906-6.5312 36.207-65.883-0.003906-6.8516-46.668c-21.832-9.9883-40.109-26.598-52.102-47.352h-43.645v-115.34h43.637c12.137-21.047 30.324-37.234 51.645-47.074l-0.003906-23.828h79.609v13.09h32.418c-1.1172-5.8711-1.7578-11.91-1.7578-18.105 0-53.379 43.426-96.805 96.805-96.805s96.805 43.426 96.805 96.805c-0.003906 33.016-16.641 62.191-41.949 79.672zm-247.72-39.125c0 28.625 22.797 52.027 51.195 53v-74.324h-51.195zm235.34 46.309c-12.844 6.3086-27.227 9.9492-42.48 9.9492-42.035 0-77.797-26.98-91.141-64.492h-36.324v75.469h-12.371c-35.723 0-64.941-28.023-67.035-63.234-17.285 9.3516-31.805 23.688-41.375 41.793l-2 3.7852h-37.895v86.93h37.895l2 3.7852c10.996 20.805 29.043 37.242 50.816 46.281l3.7188 1.543 6.2266 42.406h41.738l6.5312-36.207h83.543l6.5312 36.207h41.641l6.1914-47.137 3.1289-1.7383c32.215-17.871 52.227-51.828 52.227-88.605 0.011719-16.871-4.2188-32.738-11.566-46.734zm40.117-86.855c0-45.543-37.055-82.598-82.598-82.598-45.543 0.003907-82.598 37.055-82.598 82.598s37.055 82.598 82.598 82.598c45.543 0 82.598-37.051 82.598-82.598zm-41.57 16.961c0 13.27-10.793 24.066-24.062 24.066h-9.8594v13.246h-14.207v-13.246h-26.812v-14.207h26.812v-19.715h-9.8594c-13.27 0-24.062-10.793-24.062-24.062 0-13.27 10.793-24.062 24.062-24.062h9.8555v-13.25h14.207v13.25h26.82v14.207h-26.82v19.711h9.8594c13.266 0 24.066 10.793 24.066 24.062zm-48.133-24.062v-19.711h-9.8555c-5.4336 0-9.8555 4.4219-9.8555 9.8555 0 5.4336 4.4219 9.8555 9.8555 9.8555zm33.926 24.066c0-5.4375-4.4219-9.8594-9.8555-9.8594h-9.8594v19.715h9.8594c5.4297 0 9.8555-4.4219 9.8555-9.8555z" fill="#fff"/>
</svg>
