<?xml version="1.0" encoding="UTF-8"?>
<svg width="752pt" height="752pt" version="1.1" viewBox="0 0 752 752" xmlns="http://www.w3.org/2000/svg">
 <g fill="#fff">
  <path d="m516.37 586.48h-280.73c-18.68 0-36.309-7.3672-49.594-20.523-13.285-13.285-20.523-30.914-20.523-49.594v-280.73c0-18.68 7.3672-36.309 20.523-49.594 13.285-13.285 30.781-20.523 49.594-20.523h280.73c18.812 0 36.438 7.3672 49.594 20.523 13.285 13.285 20.523 30.781 20.523 49.594l-0.003906 280.73c0 18.812-7.3672 36.438-20.523 49.594-13.285 13.285-30.781 20.523-49.594 20.523zm-280.73-392.94c-11.184 0-21.836 4.3398-29.73 12.367-8.0234 7.8945-12.367 18.547-12.367 29.73l0.003907 280.73c0 11.184 4.3398 21.836 12.367 29.73 7.8945 8.0234 18.547 12.367 29.73 12.367l280.73-0.003906c11.312 0 21.836-4.3398 29.73-12.367 8.0234-7.8945 12.367-18.547 12.367-29.73l-0.003906-280.73c0-11.312-4.3398-21.836-12.367-29.73-7.8945-8.0234-18.547-12.367-29.73-12.367z"/>
  <path d="m395.6 477.03-6.4453-30.914c-2.1055-10.129-0.39453-20.652 4.7344-29.598l43.805-75.773c11.84-20.523 38.809-27.363 58.805-14.602 19.336 12.496 25.391 37.23 14.207 56.699l-43.805 75.773c-5.1289 8.9453-13.418 15.656-23.285 18.941l-29.992 9.8672c-7.1055 2.6328-16.445-0.92188-18.152-10.523zm78.668-129.18c-4.8672 0-9.6016 2.5-12.234 6.9727l-43.805 75.773c-1.7109 3.0273-2.2383 6.4453-1.5781 9.8672l3.1562 15.523 14.996-5c3.2891-1.0508 6.0508-3.2891 7.7617-6.3125l43.805-75.773c5.5234-9.0781-1.7109-21.312-12.234-21.047z"/>
  <path d="m235.64 319.83h154.31v28.02h-154.31z"/>
  <path d="m235.64 390.08h112.21v28.02h-112.21z"/>
  <path d="m235.64 460.2h126.29v28.02h-126.29z"/>
  <path d="m249.71 221.69c7.7617 0 14.074 6.3125 14.074 14.074s-6.3125 14.074-14.074 14.074c-7.7617 0-14.074-6.3125-14.074-14.074s6.3125-14.074 14.074-14.074z" fill-rule="evenodd"/>
  <path d="m305.89 221.69c7.7617 0 14.074 6.3125 14.074 14.074s-6.3125 14.074-14.074 14.074-14.074-6.3125-14.074-14.074 6.3125-14.074 14.074-14.074z" fill-rule="evenodd"/>
 </g>
</svg>
