<?xml version="1.0" encoding="UTF-8"?>
<svg width="752pt" height="752pt" version="1.1" viewBox="0 0 752 752" xmlns="http://www.w3.org/2000/svg">
 <g fill="#fff">
  <path d="m497.71 485.48c-7.625-16.934-54.172-31.602-54.172-31.602-17.371-6.1133-22.676-12.25-24.281-15.363-0.16406-0.37891-0.32031-0.71484-0.45312-1.0039v-0.15234s-0.10547-0.37109-0.26953-0.97266v-0.007813c-0.66797-2.4141-2.3281-8.5781-2.3281-10.098 0 0-0.085937 0.49219-0.28125 1.3594-0.12891-1.5-0.16016-3.1016-0.074219-4.8125 0 0-0.13672 0.15625-0.41016 0.4375 5.7773-7.3867 10.461-15.84 13.559-24.449 5.3047-5.2891 8.0117-18.16 8.0117-18.16 3.5156-9.8398 2.4805-14.879 0.86719-17.43 0.49219-1.4922 8.9414-27.621-2.9961-47.75 0 0-4.2344-19.043-26.656-27.516-20.723-12.691-51.625-5.0781-51.625-5.0781-37.66 6.3555-45.734 50.648-45.734 50.648-2.2461 20.23 3.1719 32.875 3.4062 33.402-1.9375 4.7812 1.5664 17.309 1.5664 17.309 1.1992 7.6406 4.9336 9.9727 6.0352 10.508 2.6289 9.4922 7.1445 18.734 12.84 26.766-0.027344-0.039062-0.082032-0.074219-0.12891-0.11328 0 0 0.62891 3.1055 0.058593 7.457-0.089843-0.45312-0.12891-0.71094-0.12891-0.71094 0 1.7852-2.1641 8.2656-2.4375 9.1055-0.015625 0.046876-0.039063 0.09375-0.0625 0.14844-1.7617 2.3242-3.5 4.4414-5.2266 6.3867-14.027 10.84-47.75 21.074-47.75 21.074-14.668 5.6406-20.879 14.109-20.879 14.109-21.699 32.176-24.234 64.316-24.234 64.316 0.28125 16.363 7.3359 18.059 7.3359 18.059 49.934 22.293 129.39 23.586 129.39 23.586 80.414 1.6953 137.77-20.223 137.77-20.223 8.5117-5.3906 8.7617-9.5938 8.7617-9.5938 5.9219-51.332-19.473-69.637-19.473-69.637z"/>
  <path d="m384.87 260.54v-1.0625c0-0.60938-0.45312-1.1016-1-1.1016h-15.699c-0.56641 0-1.0273 0.49219-1.0273 1.1016v1.0625c0 0.61719 0.46094 1.1016 1.0273 1.1016h15.699c0.54688 0 1-0.50391 1-1.1016z"/>
  <path d="m384.87 254.93c0-0.60938-0.45312-1.1016-1-1.1016h-15.699c-0.56641 0-1.0273 0.49219-1.0273 1.1016v1.0547c0 0.62109 0.46094 1.0977 1.0273 1.0977h15.699c0.54297 0 1-0.49219 1-1.0977z"/>
  <path d="m376.04 266.13c2.2461 0 4.207-1.3203 5.1328-3.2188h-10.367c0.98438 1.8789 2.9648 3.2188 5.2344 3.2188z"/>
  <path d="m364.7 247.12c0.73047 4.4102 1.7656 5.4336 5.0859 5.4336h6.2188 6.2148c3.3477 0 4.3672-1.0312 5.0781-5.4336 0.89062-5.2773 2.3242-11.359 7.6875-21.07 1.8047-3.2422 2.9375-6.9531 2.9375-10.953 0.007813-12.109-9.8086-21.918-21.918-21.918-12.09 0-21.914 9.8125-21.914 21.918 0 3.9922 1.1133 7.6953 2.9219 10.953 5.375 9.6836 6.8164 15.785 7.6875 21.07z"/>
  <path d="m376 180.35c2.4453 0 4.3945-1.957 4.3867-4.3789v-17.223c0-2.4141-1.9492-4.3789-4.3867-4.3789-2.4023 0-4.3711 1.957-4.375 4.3789v17.215c0 2.418 1.9766 4.3867 4.375 4.3867z"/>
  <path d="m343.93 191.04c0.84766 0.84766 1.9648 1.2773 3.0977 1.2773 1.1367 0 2.25-0.44531 3.1055-1.2773 1.6992-1.7148 1.6992-4.4961 0-6.2031l-12.18-12.176c-1.6992-1.6992-4.4883-1.6992-6.1914 0-1.7031 1.7148-1.7031 4.4883 0 6.1953z"/>
  <path d="m404.98 192.32c1.0977 0 2.2383-0.44531 3.0977-1.2773l12.18-12.184c1.6992-1.7031 1.6992-4.4805 0-6.1953-1.7109-1.6992-4.4961-1.6992-6.1914 0l-12.191 12.176c-1.7109 1.7109-1.7109 4.4883 0 6.2031 0.86328 0.85156 1.9766 1.2773 3.1055 1.2773z"/>
  <path d="m406.84 214.23c0 2.4219 1.9492 4.3984 4.3867 4.3984h17.215c2.4492 0 4.3945-1.9883 4.3945-4.3984 0-2.4219-1.9609-4.3789-4.3945-4.3789h-17.215c-2.4336 0-4.3867 1.9648-4.3867 4.3789z"/>
  <path d="m323.55 218.64h17.238c2.4219 0 4.375-1.9883 4.375-4.3984 0-2.4219-1.9688-4.3789-4.375-4.3789h-17.238c-2.4219 0-4.375 1.9609-4.375 4.3789s1.957 4.3984 4.375 4.3984z"/>
 </g>
</svg>
