<?xml version="1.0" encoding="UTF-8"?>
<svg width="752pt" height="752pt" version="1.1" viewBox="0 0 752 752" xmlns="http://www.w3.org/2000/svg">
 <g fill="#fff">
  <path d="m263.29 447.98h-48.305c-17.051 0-31.258 14.207-31.258 31.258v96.137c0 17.051 14.207 31.258 31.258 31.258h48.305c17.051 0 31.258-14.207 31.258-31.258v-96.137c0-17.051-13.734-31.258-31.258-31.258z"/>
  <path d="m399.68 349.48h-48.305c-17.051 0-31.258 14.207-31.258 31.258v194.64c0 17.051 14.207 31.258 31.258 31.258h48.305c17.051 0 31.258-14.207 31.258-31.258v-194.64c0-17.523-14.207-31.258-31.258-31.258z"/>
  <path d="m541.28 261.87h-48.777c-17.051 0-31.258 14.207-31.258 31.258v282.25c0 17.051 14.207 31.258 31.258 31.258h48.305c17.051 0 31.258-14.207 31.258-31.258l-0.003906-282.25c0.47656-17.523-13.73-31.258-30.781-31.258z"/>
  <path d="m212.14 412.94c3.3164 0 6.1562-0.94531 8.9961-3.3164l249.58-215.48v29.836c0 7.5781 6.1562 13.734 13.734 13.734s13.734-6.1562 13.734-13.734l-0.47266-61.566c0-7.5781-6.1562-13.734-13.734-13.734l-59.199 0.003906c-7.5781 0-13.734 6.1562-13.734 13.734s6.1562 13.734 13.734 13.734h25.102l-246.73 213.11c-5.6836 4.7344-6.1562 13.734-1.4219 19.418 2.8398 2.8359 6.6289 4.2578 10.414 4.2578z"/>
 </g>
</svg>
