<?xml version="1.0" encoding="UTF-8"?>
<svg width="752pt" height="752pt" version="1.1" viewBox="0 0 752 752" xmlns="http://www.w3.org/2000/svg">
 <g fill="#fff">
  <path d="m257.61 313.11c42.918 0 77.695-34.777 77.695-77.695 0-42.918-34.777-77.695-77.695-77.695s-77.695 34.777-77.695 77.695c0.089844 42.914 34.777 77.602 77.695 77.695zm-3.6992-79.27v-50.227h7.3984v51.797c0 1.0156-0.37109 1.9414-1.1094 2.5898l-29.598 29.598-5.2734-5.2734z"/>
  <path d="m453.7 279.8c0 3.3281-1.5742 6.5664-4.1641 8.6953l-26.73 21.461c16.648 39.59 62.156 58.18 101.75 41.531 39.59-16.648 58.18-62.156 41.531-101.75-16.648-39.59-62.156-58.18-101.75-41.531-18.777 7.8633-33.668 22.754-41.531 41.531l26.73 21.461c2.5898 2.0312 4.1641 5.2695 4.1641 8.5977zm5.6406-17.945 37 22.199c1.1094 0.64844 1.7578 1.8516 1.7578 3.1445v51.797h-7.3984v-49.672l-35.242-21.09z"/>
  <path d="m401.9 309.4c0 2.0352 1.6641 3.6992 3.6992 3.6992 0.83203 0 1.6641-0.27734 2.3125-0.83203l37-29.598c1.5742-1.2969 1.8516-3.6055 0.55469-5.1797l-0.55469-0.55469-37-29.598c-1.5742-1.2969-3.8867-1.0156-5.1797 0.55469-0.55469 0.64844-0.83203 1.4805-0.83203 2.3125v11.098h-62.898v37h62.898z"/>
  <path d="m353.8 327.9h-18.5v-3.6992c0-10.176-8.3242-18.5-18.5-18.5h-7.3984c-2.0352 0-3.6992 1.6641-3.6992 3.6992v18.5h-144.29c-2.0352 0-3.6992 1.6641-3.6992 3.6992v258.99c0 2.0352 1.6641 3.6992 3.6992 3.6992h192.39c2.0352 0 3.6992-1.6641 3.6992-3.6992l0.003906-258.99c0-2.0352-1.668-3.6992-3.7031-3.6992zm-3.6992 7.4023v103.6h-20.441c3.6992-4.0703 5.6406-9.3438 5.6406-14.801v-88.797zm-36.996-22.199h3.6992c6.1055 0 11.098 4.9961 11.098 11.098v83.34c-4.0703-3.6055-9.3438-5.6406-14.801-5.6406zm36.996 133.19v29.598h-73.996v-29.598zm-133.2-66.594h23.215l11.656 34.871zm22.199 133.19h-73.996v-29.598h73.996zm0-36.996h-73.996v-29.598h73.996zm-73.996 44.398h73.996v29.598h-73.996zm81.398-74h22.199v140.59h-22.199zm16.926-31.723 11.656-34.871h23.215zm12.672 105.72h73.996v29.598h-73.996zm0-7.4023v-29.598h73.996v29.598zm11.098-159.09 12.301 18.5h-24.512l-6.1953-18.5zm-33.113 0h7.0312l6.1953 18.5h-19.332zm13.137 25.902-9.6211 29.043-9.6172-29.043zm-39.219-25.902h18.312l-6.1953 18.5h-24.418zm-48.098 14.801c0-2.0352 1.6641-3.6992 3.6992-3.6992 6.1055 0 11.098-4.9961 11.098-11.098 0-2.0352 1.6641-3.6992 3.6992-3.6992h14.801v7.3984h-11.469c-1.4805 7.2148-7.2148 12.949-14.43 14.43v30.34c7.2148 1.4805 12.949 7.2148 14.43 14.43l26.27-0.003906v7.3984h-29.598c-2.0352 0-3.6992-1.6641-3.6992-3.6992 0-6.1055-4.9961-11.098-11.098-11.098-2.0352 0-3.6992-1.6641-3.6992-3.6992zm-14.801 188.69h73.996v29.598l-73.996 0.003906zm111 29.602v-29.598h73.996v29.598z"/>
  <path d="m590.59 401.9h-18.5v-3.6992c0-10.176-8.3242-18.5-18.5-18.5h-7.3984c-2.0352 0-3.6992 1.6641-3.6992 3.6992v18.5h-144.3c-2.0352 0-3.6992 1.6641-3.6992 3.6992v184.99c0 2.0352 1.6641 3.6992 3.6992 3.6992h192.39c2.0352 0 3.6992-1.6641 3.6992-3.6992l0.003907-184.99c0-2.0352-1.6641-3.7031-3.6992-3.7031zm-40.699-14.797h3.6992c6.1055 0 11.098 4.9961 11.098 11.098v83.34c-4.0703-3.6055-9.3438-5.6406-14.801-5.6406zm37 133.2v29.598h-73.996v-29.598zm-185 0h73.996v29.598h-73.996zm51.801-66.598h23.215l11.656 34.871zm29.598 66.598h22.199v66.598h-22.199zm16.926-31.727 11.656-34.871h23.215zm23.773-60.77 12.301 18.5h-24.512l-6.1953-18.5zm-33.113 0h7.0312l6.1953 18.5h-19.332zm13.227 25.898-9.7109 29.043-9.6211-29.043zm-39.312-25.898h18.312l-6.1953 18.5h-24.512zm-48.098 14.797c0-2.0352 1.6641-3.6992 3.6992-3.6992 6.1055 0 11.098-4.9961 11.098-11.098 0-2.0352 1.6641-3.6992 3.6992-3.6992h14.801v7.3984h-11.469c-1.4805 7.2148-7.2148 12.949-14.43 14.43v30.34c7.2148 1.4805 12.949 7.2148 14.43 14.43l18.871-0.003907v7.3984h-22.199c-2.0352 0-3.6992-1.6641-3.6992-3.6992 0-6.1055-4.9961-11.098-11.098-11.098-2.0352 0-3.6992-1.6641-3.6992-3.6992zm-14.801 114.7h73.996v29.598h-73.996zm111 29.602v-29.598h73.996v29.598zm74-74h-20.441c3.6992-4.0703 5.6406-9.3438 5.6406-14.801v-88.797h14.801z"/>
 </g>
</svg>
